<svg xmlns="http://www.w3.org/2000/svg" xmlns:xlink="http://www.w3.org/1999/xlink" xmlns:lucid="lucid" width="1123" height="721.5"><g transform="translate(141.5 -78.5)" lucid:page-tab-id="0_0"><path d="M700 440c0 154.64-125.36 280-280 280S140 594.64 140 440s125.36-280 280-280 280 125.36 280 280z" stroke="#5e5e5e" stroke-width="10" fill-opacity="0"/><path d="M116 485a6 6 0 0 1-6-6v-39a6 6 0 0 0-6-6H86a2.3 2.3 0 0 1-1.54-4l51.08-46a6.67 6.67 0 0 1 8.92 0l51.08 46a2.3 2.3 0 0 1-1.54 4h-18a6 6 0 0 0-6 6v39a6 6 0 0 1-6 6z" stroke="#5e5e5e" stroke-width="3" fill="#fe7070"/><path d="M724 380a6 6 0 0 1 6 6v29a6 6 0 0 0 6 6h18a2.3 2.3 0 0 1 1.54 4l-51.08 46a6.67 6.67 0 0 1-8.92 0l-51.08-46a2.3 2.3 0 0 1 1.54-4h18a6 6 0 0 0 6-6v-29a6 6 0 0 1 6-6z" stroke="#5e5e5e" stroke-width="3" fill="#fff7a1"/><path d="M360 136a6 6 0 0 1 6-6h39a6 6 0 0 0 6-6v-18a2.3 2.3 0 0 1 4-1.54l46 51.08a6.67 6.67 0 0 1 0 8.92l-46 51.08a2.3 2.3 0 0 1-4-1.54v-18a6 6 0 0 0-6-6h-39a6 6 0 0 1-6-6z" stroke="#5e5e5e" stroke-width="3" fill="#c3f7c8"/><path d="M465 744a6 6 0 0 1-6 6h-39a6 6 0 0 0-6 6v18a2.3 2.3 0 0 1-4 1.54l-46-51.08a6.67 6.67 0 0 1 0-8.92l46-51.08a2.3 2.3 0 0 1 4 1.54v18a6 6 0 0 0 6 6h39a6 6 0 0 1 6 6z" stroke="#5e5e5e" stroke-width="3" fill="#b8f5ed"/><path d="M240 260c0 22.1-17.9 40-40 40s-40-17.9-40-40 17.9-40 40-40 40 17.9 40 40z" stroke="#5e5e5e" stroke-width="5" fill="#c3f7c8"/><use xlink:href="#a" transform="matrix(1,0,0,1,165,225) translate(22.659320987654333 44.30555555555552)"/><path d="M680 260c0 22.1-17.9 40-40 40s-40-17.9-40-40 17.9-40 40-40 40 17.9 40 40z" stroke="#5e5e5e" stroke-width="5" fill="#fcfcca"/><use xlink:href="#b" transform="matrix(1,0,0,1,605,225) translate(22.659320987654333 44.30555555555552)"/><path d="M240 620c0 22.1-17.9 40-40 40s-40-17.9-40-40 17.9-40 40-40 40 17.9 40 40z" stroke="#5e5e5e" stroke-width="5" fill="#fe7070"/><use xlink:href="#c" transform="matrix(1,0,0,1,165,585) translate(22.659320987654333 44.30555555555552)"/><path d="M680 620c0 22.1-17.9 40-40 40s-40-17.9-40-40 17.9-40 40-40 40 17.9 40 40z" stroke="#5e5e5e" stroke-width="5" fill="#d7faf5"/><use xlink:href="#d" transform="matrix(1,0,0,1,605,585) translate(22.659320987654333 44.30555555555552)"/><path d="M156.5 260h-31.75a6 6 0 0 1-6-6v-48a6 6 0 0 0-6-6H98.5" stroke="#5e5e5e" stroke-width="2" fill="none"/><path d="M157.5 259.97l.03 1.03h-1.06v-2h1.1z" stroke="#5e5e5e" stroke-width=".05" fill="#5e5e5e"/><path d="M83.24 200l14.26-4.63v9.26z" stroke="#5e5e5e" stroke-width="2" fill="#5e5e5e"/><path d="M156.5 620h-31.75a6 6 0 0 1-6-6v-45.33a6 6 0 0 0-6-6H98.5" stroke="#5e5e5e" stroke-width="2" fill="none"/><path d="M157.5 619.97l.03 1.03h-1.06v-2h1.1z" stroke="#5e5e5e" stroke-width=".05" fill="#5e5e5e"/><path d="M83.24 562.67l14.26-4.64v9.27z" stroke="#5e5e5e" stroke-width="2" fill="#5e5e5e"/><path d="M683.5 260h31a6 6 0 0 0 6-6v-48a6 6 0 0 1 6-6H740" stroke="#5e5e5e" stroke-width="2" fill="none"/><path d="M683.53 261h-1.1l.07-.97-.03-1.03h1.06z" stroke="#5e5e5e" stroke-width=".05" fill="#5e5e5e"/><path d="M755.26 200L741 204.63v-9.26z" stroke="#5e5e5e" stroke-width="2" fill="#5e5e5e"/><path d="M-120 111.67a6 6 0 0 1 6-6H74a6 6 0 0 1 6 6v176.66a6 6 0 0 1-6 6h-188a6 6 0 0 1-6-6z" stroke="#5e5e5e" stroke-width="3" fill="#fff"/><use xlink:href="#e" transform="matrix(1,0,0,1,-115,110.66666666666669) translate(36.28703703703706 41.409722222222214)"/><use xlink:href="#f" transform="matrix(1,0,0,1,-115,110.66666666666669) translate(132.7253086419753 41.409722222222214)"/><use xlink:href="#g" transform="matrix(1,0,0,1,-115,110.66666666666669) translate(95 74.2986111111111)"/><use xlink:href="#h" transform="matrix(1,0,0,1,-115,110.66666666666669) translate(0 100.96527777777777)"/><use xlink:href="#i" transform="matrix(1,0,0,1,-115,110.66666666666669) translate(34.5679012345679 100.96527777777777)"/><use xlink:href="#j" transform="matrix(1,0,0,1,-115,110.66666666666669) translate(101.23456790123456 100.96527777777777)"/><use xlink:href="#k" transform="matrix(1,0,0,1,-115,110.66666666666669) translate(144.44444444444443 100.96527777777777)"/><use xlink:href="#l" transform="matrix(1,0,0,1,-115,110.66666666666669) translate(0 127.63194444444443)"/><use xlink:href="#m" transform="matrix(1,0,0,1,-115,110.66666666666669) translate(0 154.2986111111111)"/><path d="M760 106a6 6 0 0 1 6-6h188a6 6 0 0 1 6 6v176.67a6 6 0 0 1-6 6H766a6 6 0 0 1-6-6z" stroke="#5e5e5e" stroke-width="3" fill="#fff"/><use xlink:href="#e" transform="matrix(1,0,0,1,765,105) translate(36.28703703703706 41.409722222222214)"/><use xlink:href="#n" transform="matrix(1,0,0,1,765,105) translate(132.7253086419753 41.409722222222214)"/><use xlink:href="#g" transform="matrix(1,0,0,1,765,105) translate(95 74.2986111111111)"/><use xlink:href="#h" transform="matrix(1,0,0,1,765,105) translate(0 100.96527777777777)"/><use xlink:href="#i" transform="matrix(1,0,0,1,765,105) translate(34.5679012345679 100.96527777777777)"/><use xlink:href="#o" transform="matrix(1,0,0,1,765,105) translate(101.23456790123456 100.96527777777777)"/><use xlink:href="#p" transform="matrix(1,0,0,1,765,105) translate(0 127.63194444444443)"/><use xlink:href="#q" transform="matrix(1,0,0,1,765,105) translate(0 154.2986111111111)"/><path d="M760 477.33a6 6 0 0 1 6-6h188a6 6 0 0 1 6 6V654a6 6 0 0 1-6 6H766a6 6 0 0 1-6-6z" stroke="#5e5e5e" stroke-width="3" fill="#fff"/><g><use xlink:href="#e" transform="matrix(1,0,0,1,765,476.33333333333337) translate(36.28703703703706 35.815972222222214)"/><use xlink:href="#r" transform="matrix(1,0,0,1,765,476.33333333333337) translate(132.7253086419753 35.815972222222214)"/><use xlink:href="#g" transform="matrix(1,0,0,1,765,476.33333333333337) translate(95 68.7048611111111)"/><use xlink:href="#s" transform="matrix(1,0,0,1,765,476.33333333333337) translate(0 95.37152777777777)"/><use xlink:href="#t" transform="matrix(1,0,0,1,765,476.33333333333337) translate(32.098765432098766 95.37152777777777)"/><use xlink:href="#u" transform="matrix(1,0,0,1,765,476.33333333333337) translate(0 122.03819444444443)"/><use xlink:href="#v" transform="matrix(1,0,0,1,765,476.33333333333337) translate(81.35802469135801 122.03819444444443)"/><use xlink:href="#w" transform="matrix(1,0,0,1,765,476.33333333333337) translate(0 148.7048611111111)"/><use xlink:href="#x" transform="matrix(1,0,0,1,765,476.33333333333337) translate(101.17283950617285 148.7048611111111)"/><use xlink:href="#y" transform="matrix(1,0,0,1,765,476.33333333333337) translate(0 175.37152777777774)"/></g><path d="M683.5 620h31a6 6 0 0 0 6-6v-42.33a6 6 0 0 1 6-6H740" stroke="#5e5e5e" stroke-width="2" fill="none"/><path d="M683.53 621h-1.1l.07-.97-.03-1.03h1.06z" stroke="#5e5e5e" stroke-width=".05" fill="#5e5e5e"/><path d="M755.26 565.67L741 570.3v-9.27z" stroke="#5e5e5e" stroke-width="2" fill="#5e5e5e"/><path d="M-120 484.5a6 6 0 0 1 6-6H74a6 6 0 0 1 6 6V654a6 6 0 0 1-6 6h-188a6 6 0 0 1-6-6z" stroke="#5e5e5e" stroke-width="3" fill="#fff"/><g><use xlink:href="#e" transform="matrix(1,0,0,1,-115,483.5000000000001) translate(36.28703703703706 51.722222222222214)"/><use xlink:href="#z" transform="matrix(1,0,0,1,-115,483.5000000000001) translate(132.7253086419753 51.722222222222214)"/><use xlink:href="#g" transform="matrix(1,0,0,1,-115,483.5000000000001) translate(95 84.61111111111109)"/><use xlink:href="#s" transform="matrix(1,0,0,1,-115,483.5000000000001) translate(0 111.27777777777777)"/><use xlink:href="#A" transform="matrix(1,0,0,1,-115,483.5000000000001) translate(32.098765432098766 111.27777777777777)"/><use xlink:href="#B" transform="matrix(1,0,0,1,-115,483.5000000000001) translate(120.98765432098764 111.27777777777777)"/><use xlink:href="#C" transform="matrix(1,0,0,1,-115,483.5000000000001) translate(0 137.94444444444443)"/><use xlink:href="#y" transform="matrix(1,0,0,1,-115,483.5000000000001) translate(72.77777777777777 137.94444444444443)"/></g><path d="M270 311.17a6 6 0 0 1 6-6h288a6 6 0 0 1 6 6v232.66a6 6 0 0 1-6 6H276a6 6 0 0 1-6-6z" stroke="#000" stroke-opacity="0" stroke-width="3" fill="#fff" fill-opacity="0"/><g><use xlink:href="#D" transform="matrix(1,0,0,1,275,310.16666666666674) translate(33.438271604938336 68.48611111111109)"/><use xlink:href="#E" transform="matrix(1,0,0,1,275,310.16666666666674) translate(80.42592592592595 68.48611111111109)"/><use xlink:href="#F" transform="matrix(1,0,0,1,275,310.16666666666674) translate(199.66049382716045 68.48611111111109)"/><use xlink:href="#G" transform="matrix(1,0,0,1,275,310.16666666666674) translate(27.12345679012354 127.15277777777771)"/><use xlink:href="#H" transform="matrix(1,0,0,1,275,310.16666666666674) translate(176.23456790123453 127.15277777777771)"/><use xlink:href="#I" transform="matrix(1,0,0,1,275,310.16666666666674) translate(73.22839506172845 185.81944444444434)"/></g><defs><path fill="#333" d="M23 0v-37h61v-169l-59 37v-38l62-41h46v211h57V0H23" id="J"/><use transform="matrix(0.12345679012345667,0,0,0.12345679012345667,0,0)" xlink:href="#J" id="a"/><path fill="#333" d="M182-182c0 78-84 86-111 141h115V0H12c-6-101 99-100 120-180 1-22-12-31-33-32-23 0-32 14-35 34l-49-3c5-45 32-70 84-70 51 0 83 22 83 69" id="K"/><use transform="matrix(0.12345679012345667,0,0,0.12345679012345667,0,0)" xlink:href="#K" id="b"/><path fill="#333" d="M165-50V0h-47v-50H5v-38l105-160h55v161h33v37h-33zm-47-37l2-116L46-87h72" id="L"/><use transform="matrix(0.12345679012345667,0,0,0.12345679012345667,0,0)" xlink:href="#L" id="c"/><path fill="#333" d="M128-127c34 4 56 21 59 58 7 91-148 94-172 28-4-9-6-17-7-26l51-5c1 24 16 35 40 36 23 0 39-12 38-36-1-31-31-36-65-34v-40c32 2 59-3 59-33 0-20-13-33-34-33s-33 13-35 32l-50-3c6-44 37-68 86-68 50 0 83 20 83 66 0 35-22 52-53 58" id="M"/><use transform="matrix(0.12345679012345667,0,0,0.12345679012345667,0,0)" xlink:href="#M" id="d"/><path fill="#333" d="M76-208v77h127v40H76V0H24v-248h183v40H76" id="N"/><path fill="#333" d="M133-34C117-15 103 5 69 4 32 3 11-16 11-54c-1-60 55-63 116-61 1-26-3-47-28-47-18 1-26 9-28 27l-52-2c7-38 36-58 82-57s74 22 75 68l1 82c-1 14 12 18 25 15v27c-30 8-71 5-69-32zm-48 3c29 0 43-24 42-57-32 0-66-3-65 30 0 17 8 27 23 27" id="O"/><path fill="#333" d="M137-138c1-29-70-34-71-4 15 46 118 7 119 86 1 83-164 76-172 9l43-7c4 19 20 25 44 25 33 8 57-30 24-41C81-84 22-81 20-136c-2-80 154-74 161-7" id="P"/><path fill="#333" d="M185-48c-13 30-37 53-82 52C43 2 14-33 14-96s30-98 90-98c62 0 83 45 84 108H66c0 31 8 55 39 56 18 0 30-7 34-22zm-45-69c5-46-57-63-70-21-2 6-4 13-4 21h74" id="Q"/><g id="e"><use transform="matrix(0.10493827160493824,0,0,0.10493827160493824,0,0)" xlink:href="#N"/><use transform="matrix(0.10493827160493824,0,0,0.10493827160493824,22.981481481481474,0)" xlink:href="#O"/><use transform="matrix(0.10493827160493824,0,0,0.10493827160493824,43.969135802469125,0)" xlink:href="#P"/><use transform="matrix(0.10493827160493824,0,0,0.10493827160493824,64.95679012345677,0)" xlink:href="#Q"/></g><use transform="matrix(0.10493827160493824,0,0,0.10493827160493824,0,0)" xlink:href="#J" id="f"/><path fill="#333" d="M140-251c81 0 123 46 123 126C263-46 219 4 140 4 59 4 17-45 17-125s42-126 123-126zm0 227c63 0 89-41 89-101s-29-99-89-99c-61 0-89 39-89 99S79-25 140-24" id="R"/><path fill="#333" d="M135-143c-3-34-86-38-87 0 15 53 115 12 119 90S17 21 10-45l28-5c4 36 97 45 98 0-10-56-113-15-118-90-4-57 82-63 122-42 12 7 21 19 24 35" id="S"/><g id="h"><use transform="matrix(0.06172839506172839,0,0,0.06172839506172839,0,0)" xlink:href="#R"/><use transform="matrix(0.06172839506172839,0,0,0.06172839506172839,17.28395061728395,0)" xlink:href="#S"/></g><path fill="#333" d="M85-194c31 0 48 13 60 33l-1-100h32l1 261h-30c-2-10 0-23-3-31C134-8 116 4 85 4 32 4 16-35 15-94c0-66 23-100 70-100zm9 24c-40 0-46 34-46 75 0 40 6 74 45 74 42 0 51-32 51-76 0-42-9-74-50-73" id="T"/><path fill="#333" d="M141-36C126-15 110 5 73 4 37 3 15-17 15-53c-1-64 63-63 125-63 3-35-9-54-41-54-24 1-41 7-42 31l-33-3c5-37 33-52 76-52 45 0 72 20 72 64v82c-1 20 7 32 28 27v20c-31 9-61-2-59-35zM48-53c0 20 12 33 32 33 41-3 63-29 60-74-43 2-92-5-92 41" id="U"/><path fill="#333" d="M100-194c62-1 85 37 85 99 1 63-27 99-86 99S16-35 15-95c0-66 28-99 85-99zM99-20c44 1 53-31 53-75 0-43-8-75-51-75s-53 32-53 75 10 74 51 75" id="V"/><g id="i"><use transform="matrix(0.06172839506172839,0,0,0.06172839506172839,0,0)" xlink:href="#T"/><use transform="matrix(0.06172839506172839,0,0,0.06172839506172839,12.345679012345679,0)" xlink:href="#U"/><use transform="matrix(0.06172839506172839,0,0,0.06172839506172839,24.691358024691358,0)" xlink:href="#T"/><use transform="matrix(0.06172839506172839,0,0,0.06172839506172839,37.03703703703704,0)" xlink:href="#V"/><use transform="matrix(0.06172839506172839,0,0,0.06172839506172839,49.382716049382715,0)" xlink:href="#S"/></g><path fill="#333" d="M117-194c89-4 53 116 60 194h-32v-121c0-31-8-49-39-48C34-167 62-67 57 0H25l-1-190h30c1 10-1 24 2 32 11-22 29-35 61-36" id="W"/><path fill="#333" d="M141-36C126-15 110 5 73 4 37 3 15-17 15-53c-1-64 63-63 125-63 3-35-9-54-41-54-24 1-41 7-42 31l-33-3c5-37 33-52 76-52 45 0 72 20 72 64v82c-1 20 7 32 28 27v20c-31 9-61-2-59-35zM48-53c0 20 12 33 32 33 41-3 63-29 60-74-43 2-92-5-92 41zm117-205c-3 23-9 48-36 47-26-1-65-44-74 0H39c4-23 8-48 36-47s64 44 74 0h16" id="X"/><g id="j"><use transform="matrix(0.06172839506172839,0,0,0.06172839506172839,0,0)" xlink:href="#W"/><use transform="matrix(0.06172839506172839,0,0,0.06172839506172839,12.345679012345679,0)" xlink:href="#X"/><use transform="matrix(0.06172839506172839,0,0,0.06172839506172839,24.691358024691358,0)" xlink:href="#V"/></g><g id="k"><use transform="matrix(0.06172839506172839,0,0,0.06172839506172839,0,0)" xlink:href="#S"/><use transform="matrix(0.06172839506172839,0,0,0.06172839506172839,11.11111111111111,0)" xlink:href="#X"/><use transform="matrix(0.06172839506172839,0,0,0.06172839506172839,23.45679012345679,0)" xlink:href="#V"/></g><path fill="#333" d="M96-169c-40 0-48 33-48 73s9 75 48 75c24 0 41-14 43-38l32 2c-6 37-31 61-74 61-59 0-76-41-82-99-10-93 101-131 147-64 4 7 5 14 7 22l-32 3c-4-21-16-35-41-35" id="Y"/><path fill="#333" d="M59-47c-2 24 18 29 38 22v24C64 9 27 4 27-40v-127H5v-23h24l9-43h21v43h35v23H59v120" id="Z"/><path fill="#333" d="M100-194c63 0 86 42 84 106H49c0 40 14 67 53 68 26 1 43-12 49-29l28 8c-11 28-37 45-77 45C44 4 14-33 15-96c1-61 26-98 85-98zm52 81c6-60-76-77-97-28-3 7-6 17-6 28h103" id="aa"/><path fill="#333" d="M210-169c-67 3-38 105-44 169h-31v-121c0-29-5-50-35-48C34-165 62-65 56 0H25l-1-190h30c1 10-1 24 2 32 10-44 99-50 107 0 11-21 27-35 58-36 85-2 47 119 55 194h-31v-121c0-29-5-49-35-48" id="ab"/><g id="l"><use transform="matrix(0.06172839506172839,0,0,0.06172839506172839,0,0)" xlink:href="#Y"/><use transform="matrix(0.06172839506172839,0,0,0.06172839506172839,11.11111111111111,0)" xlink:href="#V"/><use transform="matrix(0.06172839506172839,0,0,0.06172839506172839,23.45679012345679,0)" xlink:href="#W"/><use transform="matrix(0.06172839506172839,0,0,0.06172839506172839,35.80246913580247,0)" xlink:href="#S"/><use transform="matrix(0.06172839506172839,0,0,0.06172839506172839,46.91358024691358,0)" xlink:href="#Z"/><use transform="matrix(0.06172839506172839,0,0,0.06172839506172839,53.086419753086425,0)" xlink:href="#U"/><use transform="matrix(0.06172839506172839,0,0,0.06172839506172839,65.4320987654321,0)" xlink:href="#W"/><use transform="matrix(0.06172839506172839,0,0,0.06172839506172839,77.77777777777779,0)" xlink:href="#Z"/><use transform="matrix(0.06172839506172839,0,0,0.06172839506172839,83.95061728395062,0)" xlink:href="#aa"/><use transform="matrix(0.06172839506172839,0,0,0.06172839506172839,96.2962962962963,0)" xlink:href="#ab"/><use transform="matrix(0.06172839506172839,0,0,0.06172839506172839,114.75308641975309,0)" xlink:href="#aa"/><use transform="matrix(0.06172839506172839,0,0,0.06172839506172839,127.09876543209879,0)" xlink:href="#W"/><use transform="matrix(0.06172839506172839,0,0,0.06172839506172839,139.44444444444446,0)" xlink:href="#Z"/><use transform="matrix(0.06172839506172839,0,0,0.06172839506172839,145.6172839506173,0)" xlink:href="#aa"/></g><path fill="#333" d="M24-231v-30h32v30H24zM24 0v-190h32V0H24" id="ac"/><path fill="#333" d="M33 0v-38h34V0H33" id="ad"/><g id="m"><use transform="matrix(0.06172839506172839,0,0,0.06172839506172839,0,0)" xlink:href="#ab"/><use transform="matrix(0.06172839506172839,0,0,0.06172839506172839,18.456790123456788,0)" xlink:href="#U"/><use transform="matrix(0.06172839506172839,0,0,0.06172839506172839,30.80246913580247,0)" xlink:href="#W"/><use transform="matrix(0.06172839506172839,0,0,0.06172839506172839,43.148148148148145,0)" xlink:href="#Z"/><use transform="matrix(0.06172839506172839,0,0,0.06172839506172839,49.32098765432099,0)" xlink:href="#ac"/><use transform="matrix(0.06172839506172839,0,0,0.06172839506172839,54.19753086419753,0)" xlink:href="#T"/><use transform="matrix(0.06172839506172839,0,0,0.06172839506172839,66.54320987654322,0)" xlink:href="#V"/><use transform="matrix(0.06172839506172839,0,0,0.06172839506172839,78.8888888888889,0)" xlink:href="#S"/><use transform="matrix(0.06172839506172839,0,0,0.06172839506172839,90.00000000000001,0)" xlink:href="#ad"/></g><use transform="matrix(0.10493827160493824,0,0,0.10493827160493824,0,0)" xlink:href="#K" id="n"/><g id="o"><use transform="matrix(0.06172839506172839,0,0,0.06172839506172839,0,0)" xlink:href="#S"/><use transform="matrix(0.06172839506172839,0,0,0.06172839506172839,11.11111111111111,0)" xlink:href="#aa"/></g><path fill="#333" d="M114-163C36-179 61-72 57 0H25l-1-190h30c1 12-1 29 2 39 6-27 23-49 58-41v29" id="ae"/><g id="p"><use transform="matrix(0.06172839506172839,0,0,0.06172839506172839,0,0)" xlink:href="#Z"/><use transform="matrix(0.06172839506172839,0,0,0.06172839506172839,6.172839506172839,0)" xlink:href="#V"/><use transform="matrix(0.06172839506172839,0,0,0.06172839506172839,18.51851851851852,0)" xlink:href="#ae"/><use transform="matrix(0.06172839506172839,0,0,0.06172839506172839,25.864197530864196,0)" xlink:href="#W"/><use transform="matrix(0.06172839506172839,0,0,0.06172839506172839,38.20987654320987,0)" xlink:href="#U"/><use transform="matrix(0.06172839506172839,0,0,0.06172839506172839,50.55555555555555,0)" xlink:href="#ab"/></g><path fill="#333" d="M24 0v-261h32V0H24" id="af"/><path fill="#333" d="M108 0H70L1-190h34L89-25l56-165h34" id="ag"/><g id="q"><use transform="matrix(0.06172839506172839,0,0,0.06172839506172839,0,0)" xlink:href="#ac"/><use transform="matrix(0.06172839506172839,0,0,0.06172839506172839,4.876543209876543,0)" xlink:href="#ae"/><use transform="matrix(0.06172839506172839,0,0,0.06172839506172839,12.222222222222221,0)" xlink:href="#ae"/><use transform="matrix(0.06172839506172839,0,0,0.06172839506172839,19.5679012345679,0)" xlink:href="#aa"/><use transform="matrix(0.06172839506172839,0,0,0.06172839506172839,31.91358024691358,0)" xlink:href="#af"/><use transform="matrix(0.06172839506172839,0,0,0.06172839506172839,36.79012345679012,0)" xlink:href="#aa"/><use transform="matrix(0.06172839506172839,0,0,0.06172839506172839,49.1358024691358,0)" xlink:href="#ag"/><use transform="matrix(0.06172839506172839,0,0,0.06172839506172839,60.24691358024691,0)" xlink:href="#U"/><use transform="matrix(0.06172839506172839,0,0,0.06172839506172839,72.5925925925926,0)" xlink:href="#W"/><use transform="matrix(0.06172839506172839,0,0,0.06172839506172839,84.93827160493828,0)" xlink:href="#Z"/><use transform="matrix(0.06172839506172839,0,0,0.06172839506172839,91.11111111111111,0)" xlink:href="#aa"/><use transform="matrix(0.06172839506172839,0,0,0.06172839506172839,103.4567901234568,0)" xlink:href="#S"/><use transform="matrix(0.06172839506172839,0,0,0.06172839506172839,114.56790123456791,0)" xlink:href="#ad"/></g><use transform="matrix(0.10493827160493824,0,0,0.10493827160493824,0,0)" xlink:href="#M" id="r"/><path fill="#333" d="M205 0l-28-72H64L36 0H1l101-248h38L239 0h-34zm-38-99l-47-123c-12 45-31 82-46 123h93" id="ah"/><g id="s"><use transform="matrix(0.06172839506172839,0,0,0.06172839506172839,0,0)" xlink:href="#ah"/><use transform="matrix(0.06172839506172839,0,0,0.06172839506172839,14.814814814814813,0)" xlink:href="#S"/></g><path fill="#333" d="M115-194c55 1 70 41 70 98S169 2 115 4C84 4 66-9 55-30l1 105H24l-1-265h31l2 30c10-21 28-34 59-34zm-8 174c40 0 45-34 45-75s-6-73-45-74c-42 0-51 32-51 76 0 43 10 73 51 73" id="ai"/><g id="t"><use transform="matrix(0.06172839506172839,0,0,0.06172839506172839,0,0)" xlink:href="#ai"/><use transform="matrix(0.06172839506172839,0,0,0.06172839506172839,12.345679012345679,0)" xlink:href="#aa"/><use transform="matrix(0.06172839506172839,0,0,0.06172839506172839,24.691358024691358,0)" xlink:href="#S"/><use transform="matrix(0.06172839506172839,0,0,0.06172839506172839,35.80246913580247,0)" xlink:href="#S"/><use transform="matrix(0.06172839506172839,0,0,0.06172839506172839,46.91358024691358,0)" xlink:href="#V"/><use transform="matrix(0.06172839506172839,0,0,0.06172839506172839,59.25925925925926,0)" xlink:href="#U"/><use transform="matrix(0.06172839506172839,0,0,0.06172839506172839,71.60493827160494,0)" xlink:href="#S"/></g><g id="u"><use transform="matrix(0.06172839506172839,0,0,0.06172839506172839,0,0)" xlink:href="#ai"/><use transform="matrix(0.06172839506172839,0,0,0.06172839506172839,12.345679012345679,0)" xlink:href="#aa"/><use transform="matrix(0.06172839506172839,0,0,0.06172839506172839,24.691358024691358,0)" xlink:href="#ae"/><use transform="matrix(0.06172839506172839,0,0,0.06172839506172839,32.03703703703704,0)" xlink:href="#T"/><use transform="matrix(0.06172839506172839,0,0,0.06172839506172839,44.382716049382715,0)" xlink:href="#aa"/><use transform="matrix(0.06172839506172839,0,0,0.06172839506172839,56.72839506172839,0)" xlink:href="#ab"/></g><use transform="matrix(0.06172839506172839,0,0,0.06172839506172839,0,0)" xlink:href="#U" id="v"/><path fill="#333" d="M101-234c-31-9-42 10-38 44h38v23H63V0H32v-167H5v-23h27c-7-52 17-82 69-68v24" id="aj"/><path fill="#333" d="M96-169c-40 0-48 33-48 73s9 75 48 75c24 0 41-14 43-38l32 2c-6 37-31 61-74 61-59 0-76-41-82-99-10-93 101-131 147-64 4 7 5 14 7 22l-32 3c-4-21-16-35-41-35zm3 187c19-1 33 8 33 26 0 31-30 33-64 32V58c18 2 39 4 41-13 1-15-18-13-34-13L87 0h19" id="ak"/><g id="w"><use transform="matrix(0.06172839506172839,0,0,0.06172839506172839,0,0)" xlink:href="#Y"/><use transform="matrix(0.06172839506172839,0,0,0.06172839506172839,11.11111111111111,0)" xlink:href="#V"/><use transform="matrix(0.06172839506172839,0,0,0.06172839506172839,23.45679012345679,0)" xlink:href="#W"/><use transform="matrix(0.06172839506172839,0,0,0.06172839506172839,35.80246913580247,0)" xlink:href="#aj"/><use transform="matrix(0.06172839506172839,0,0,0.06172839506172839,41.97530864197531,0)" xlink:href="#ac"/><use transform="matrix(0.06172839506172839,0,0,0.06172839506172839,46.851851851851855,0)" xlink:href="#U"/><use transform="matrix(0.06172839506172839,0,0,0.06172839506172839,59.19753086419753,0)" xlink:href="#W"/><use transform="matrix(0.06172839506172839,0,0,0.06172839506172839,71.54320987654322,0)" xlink:href="#ak"/><use transform="matrix(0.06172839506172839,0,0,0.06172839506172839,82.65432098765433,0)" xlink:href="#U"/></g><g id="x"><use transform="matrix(0.06172839506172839,0,0,0.06172839506172839,0,0)" xlink:href="#W"/><use transform="matrix(0.06172839506172839,0,0,0.06172839506172839,12.345679012345679,0)" xlink:href="#V"/><use transform="matrix(0.06172839506172839,0,0,0.06172839506172839,24.691358024691358,0)" xlink:href="#S"/></g><g id="y"><use transform="matrix(0.06172839506172839,0,0,0.06172839506172839,0,0)" xlink:href="#T"/><use transform="matrix(0.06172839506172839,0,0,0.06172839506172839,12.345679012345679,0)" xlink:href="#U"/><use transform="matrix(0.06172839506172839,0,0,0.06172839506172839,24.691358024691358,0)" xlink:href="#T"/><use transform="matrix(0.06172839506172839,0,0,0.06172839506172839,37.03703703703704,0)" xlink:href="#V"/><use transform="matrix(0.06172839506172839,0,0,0.06172839506172839,49.382716049382715,0)" xlink:href="#S"/><use transform="matrix(0.06172839506172839,0,0,0.06172839506172839,60.49382716049382,0)" xlink:href="#ad"/></g><use transform="matrix(0.10493827160493824,0,0,0.10493827160493824,0,0)" xlink:href="#L" id="z"/><g id="A"><use transform="matrix(0.06172839506172839,0,0,0.06172839506172839,0,0)" xlink:href="#ai"/><use transform="matrix(0.06172839506172839,0,0,0.06172839506172839,12.345679012345679,0)" xlink:href="#aa"/><use transform="matrix(0.06172839506172839,0,0,0.06172839506172839,24.691358024691358,0)" xlink:href="#S"/><use transform="matrix(0.06172839506172839,0,0,0.06172839506172839,35.80246913580247,0)" xlink:href="#S"/><use transform="matrix(0.06172839506172839,0,0,0.06172839506172839,46.91358024691358,0)" xlink:href="#V"/><use transform="matrix(0.06172839506172839,0,0,0.06172839506172839,59.25925925925926,0)" xlink:href="#U"/><use transform="matrix(0.06172839506172839,0,0,0.06172839506172839,71.60493827160494,0)" xlink:href="#S"/></g><path fill="#333" d="M84 4C-5 8 30-112 23-190h32v120c0 31 7 50 39 49 72-2 45-101 50-169h31l1 190h-30c-1-10 1-25-2-33-11 22-28 36-60 37" id="al"/><g id="B"><use transform="matrix(0.06172839506172839,0,0,0.06172839506172839,0,0)" xlink:href="#al"/><use transform="matrix(0.06172839506172839,0,0,0.06172839506172839,12.345679012345679,0)" xlink:href="#S"/><use transform="matrix(0.06172839506172839,0,0,0.06172839506172839,23.45679012345679,0)" xlink:href="#U"/><use transform="matrix(0.06172839506172839,0,0,0.06172839506172839,35.80246913580247,0)" xlink:href="#ab"/></g><g id="C"><use transform="matrix(0.06172839506172839,0,0,0.06172839506172839,0,0)" xlink:href="#ab"/><use transform="matrix(0.06172839506172839,0,0,0.06172839506172839,18.456790123456788,0)" xlink:href="#aa"/><use transform="matrix(0.06172839506172839,0,0,0.06172839506172839,30.80246913580247,0)" xlink:href="#W"/><use transform="matrix(0.06172839506172839,0,0,0.06172839506172839,43.148148148148145,0)" xlink:href="#V"/><use transform="matrix(0.06172839506172839,0,0,0.06172839506172839,55.49382716049382,0)" xlink:href="#S"/></g><path fill="#333" d="M199 0l-22-63H83L61 0H9l90-248h61L250 0h-51zm-33-102l-36-108c-10 38-24 72-36 108h72" id="am"/><use transform="matrix(0.13580246913580238,0,0,0.13580246913580238,0,0)" xlink:href="#am" id="D"/><path fill="#333" d="M135-150c-39-12-60 13-60 57V0H25l-1-190h47c2 13-1 29 3 40 6-28 27-53 61-41v41" id="an"/><path fill="#333" d="M110-194c64 0 96 36 96 99 0 64-35 99-97 99-61 0-95-36-95-99 0-62 34-99 96-99zm-1 164c35 0 45-28 45-65 0-40-10-65-43-65-34 0-45 26-45 65 0 36 10 65 43 65" id="ao"/><path fill="#333" d="M88-194c31-1 46 15 58 34l-1-101h50l1 261h-48c-2-10 0-23-3-31C134-8 116 4 84 4 32 4 16-41 15-95c0-56 19-97 73-99zm17 164c33 0 40-30 41-66 1-37-9-64-41-64s-38 30-39 65c0 43 13 65 39 65" id="ap"/><g id="E"><use transform="matrix(0.13580246913580238,0,0,0.13580246913580238,0,0)" xlink:href="#an"/><use transform="matrix(0.13580246913580238,0,0,0.13580246913580238,19.012345679012334,0)" xlink:href="#ao"/><use transform="matrix(0.13580246913580238,0,0,0.13580246913580238,48.75308641975305,0)" xlink:href="#ap"/><use transform="matrix(0.13580246913580238,0,0,0.13580246913580238,78.49382716049377,0)" xlink:href="#O"/></g><g id="F"><use transform="matrix(0.13580246913580238,0,0,0.13580246913580238,0,0)" xlink:href="#ap"/><use transform="matrix(0.13580246913580238,0,0,0.13580246913580238,29.74074074074072,0)" xlink:href="#O"/></g><path fill="#333" d="M220-157c-53 9-28 100-34 157h-49v-107c1-27-5-49-29-50C55-147 81-57 75 0H25l-1-190h47c2 12-1 28 3 38 10-53 101-56 108 0 13-22 24-43 59-42 82 1 51 116 57 194h-49v-107c-1-25-5-48-29-50" id="aq"/><path fill="#333" d="M115-3C79 11 28 4 28-45v-112H4v-33h27l15-45h31v45h36v33H77v99c-1 23 16 31 38 25v30" id="ar"/><g id="G"><use transform="matrix(0.13580246913580238,0,0,0.13580246913580238,0,0)" xlink:href="#aq"/><use transform="matrix(0.13580246913580238,0,0,0.13580246913580238,43.45679012345676,0)" xlink:href="#ao"/><use transform="matrix(0.13580246913580238,0,0,0.13580246913580238,73.19753086419747,0)" xlink:href="#an"/><use transform="matrix(0.13580246913580238,0,0,0.13580246913580238,92.20987654320982,0)" xlink:href="#ar"/><use transform="matrix(0.13580246913580238,0,0,0.13580246913580238,108.3703703703703,0)" xlink:href="#Q"/></g><g id="H"><use transform="matrix(0.13580246913580238,0,0,0.13580246913580238,0,0)" xlink:href="#ap"/><use transform="matrix(0.13580246913580238,0,0,0.13580246913580238,29.74074074074072,0)" xlink:href="#ao"/><use transform="matrix(0.13580246913580238,0,0,0.13580246913580238,59.48148148148144,0)" xlink:href="#P"/></g><g id="I"><use transform="matrix(0.13580246913580238,0,0,0.13580246913580238,0,0)" xlink:href="#ap"/><use transform="matrix(0.13580246913580238,0,0,0.13580246913580238,29.74074074074072,0)" xlink:href="#O"/><use transform="matrix(0.13580246913580238,0,0,0.13580246913580238,56.9012345679012,0)" xlink:href="#ap"/><use transform="matrix(0.13580246913580238,0,0,0.13580246913580238,86.64197530864192,0)" xlink:href="#ao"/><use transform="matrix(0.13580246913580238,0,0,0.13580246913580238,116.38271604938264,0)" xlink:href="#P"/></g></defs></g></svg>